<?xml version="1.0" standalone="no"?>
<!DOCTYPE svg PUBLIC "-//W3C//DTD SVG 20010904//EN"
 "http://www.w3.org/TR/2001/REC-SVG-20010904/DTD/svg10.dtd">
<svg version="1.0" xmlns="http://www.w3.org/2000/svg"
 width="300.000000pt" height="300.000000pt" viewBox="0 0 300.000000 300.000000"
 preserveAspectRatio="xMidYMid meet">

<g transform="translate(0.000000,300.000000) scale(0.100000,-0.100000)"
fill="#4406B1" stroke="none">
<path d="M1065 2681 l-420 -247 -3 -323 c-2 -339 0 -361 39 -340 10 5 19 8 19
5 0 -2 -88 -55 -196 -117 -134 -78 -199 -121 -205 -137 -5 -13 -9 -181 -9
-374 l0 -351 56 -76 c79 -107 292 -313 404 -393 107 -76 235 -146 333 -183
l67 -25 0 40 c0 44 5 47 38 24 12 -8 36 -14 54 -12 45 4 69 42 75 119 l5 64
39 -3 c33 -4 43 1 68 27 15 16 39 58 51 93 13 35 26 67 30 71 6 7 200 -82 219
-99 2 -2 7 -20 10 -40 7 -44 41 -63 66 -37 14 14 21 13 68 -7 68 -29 76 -37
46 -48 -13 -5 -86 -30 -161 -56 -138 -48 -138 -48 -138 -80 0 -41 17 -98 31
-107 7 -4 23 -2 36 4 20 9 24 17 21 39 -4 25 -1 29 31 38 261 73 317 87 322
81 4 -3 14 -36 24 -72 l17 -67 31 9 c16 4 32 10 34 13 3 2 -1 30 -8 60 -7 31
-10 58 -8 60 2 2 67 -6 144 -19 l140 -23 58 31 c38 20 54 33 45 38 -7 4 -85
23 -173 43 -88 21 -168 39 -177 42 -16 5 -15 9 7 42 20 30 32 37 57 37 41 0
66 39 43 66 -8 8 -15 23 -15 31 0 68 -37 62 -100 -17 -29 -36 -54 -65 -56 -63
-1 2 -4 41 -5 87 l-2 84 103 59 c56 32 107 58 112 58 18 0 127 60 140 78 7 10
40 33 73 52 95 53 95 52 95 143 0 75 -2 80 -30 107 l-29 27 49 31 c88 55 91
64 88 312 l-3 215 -50 27 c-60 33 -80 34 -123 8 -18 -11 -38 -20 -45 -20 -7 0
-19 31 -29 74 -34 149 -105 256 -170 256 -19 0 -38 -4 -44 -9 -5 -4 -28 -6
-51 -3 l-42 4 24 32 c36 48 75 159 75 215 0 39 -6 56 -26 80 -14 17 -28 49
-31 71 -5 35 -8 38 -24 29 -13 -7 -34 -5 -71 7 -45 15 -60 16 -122 5 -39 -7
-84 -14 -99 -16 -15 -1 -33 -7 -39 -13 -7 -7 -20 -12 -29 -12 -15 0 -18 -12
-21 -77 -2 -62 1 -82 16 -107 11 -17 21 -36 22 -43 1 -7 11 -25 22 -40 13 -18
18 -38 15 -54 -3 -15 2 -40 11 -56 21 -42 82 -93 111 -93 33 0 38 -14 15 -35
-11 -10 -20 -28 -20 -40 0 -26 -23 -48 -72 -68 -32 -14 -42 -27 -83 -112 -27
-57 -64 -116 -90 -144 -25 -27 -45 -54 -45 -62 0 -8 14 -38 30 -66 33 -57 63
-73 100 -53 12 6 24 9 27 6 6 -5 -7 -106 -13 -106 -2 0 -22 11 -44 25 -33 21
-43 23 -59 13 -26 -16 -45 0 -80 70 l-28 55 -43 -52 c-24 -28 -49 -51 -56 -51
-18 0 -89 84 -125 147 -17 30 -30 55 -28 57 2 1 18 8 34 15 58 25 435 242 435
251 0 4 16 18 35 30 19 12 35 25 35 29 0 5 -28 11 -62 15 -35 3 -91 15 -126
26 -69 22 -92 18 -151 -27 -30 -23 -32 -24 -22 -5 15 28 80 72 107 72 11 0 47
-9 79 -20 33 -11 63 -19 67 -18 9 3 -168 108 -182 108 -11 0 -651 -369 -668
-385 -10 -9 -11 -18 -4 -32 14 -25 225 -153 252 -153 12 0 42 12 68 27 33 19
47 23 50 14 2 -7 32 -69 67 -137 62 -124 62 -125 41 -138 -11 -7 -85 -48 -163
-90 -161 -87 -187 -92 -264 -49 l-49 26 -85 260 c-79 245 -83 261 -70 287 19
37 33 47 280 187 116 66 279 160 362 208 139 79 159 88 217 92 36 3 86 0 112
-6 25 -7 49 -9 52 -7 9 10 -19 89 -44 121 -28 37 -30 51 -8 63 14 8 15 14 4
46 -6 20 -14 36 -17 36 -2 0 -51 -27 -107 -60 -57 -33 -108 -60 -114 -60 -9 0
-12 85 -12 324 0 286 -2 325 -16 330 -9 3 -19 6 -22 5 -4 0 -196 -112 -427
-248z m447 -61 c1 -137 2 -271 3 -297 l0 -48 -405 -232 c-223 -128 -408 -233
-412 -233 -5 0 -8 134 -8 299 l0 299 398 230 c218 126 403 230 410 231 9 1 12
-56 14 -249z m178 -750 c0 -15 -50 -32 -69 -24 -12 5 -7 10 19 19 44 17 50 17
50 5z m-940 -65 c0 -2 -10 -9 -22 -15 -22 -11 -22 -10 -4 4 21 17 26 19 26 11z
m600 -104 c35 -36 39 -38 58 -25 33 23 34 0 2 -24 l-29 -22 -26 37 c-13 21
-39 45 -57 55 -31 16 -31 17 -9 18 15 0 38 -14 61 -39z m-45 -14 c7 -6 -1 -8
-24 -3 -18 3 -40 6 -47 6 -8 0 -14 5 -14 10 0 13 70 2 85 -13z m654 -224 c20
-79 22 -171 7 -316 -9 -81 -13 -160 -10 -174 5 -17 3 -24 -4 -19 -14 9 -20 40
-32 192 -6 72 -19 161 -29 197 -17 64 -17 67 0 82 9 9 23 30 29 46 17 39 27
37 39 -8z m-299 -213 c0 -5 -4 -10 -9 -10 -5 0 -18 -3 -28 -7 -16 -6 -16 -5
-4 10 15 19 41 23 41 7z m-150 -47 c0 -14 -15 -30 -37 -42 -19 -9 -21 -15 -12
-29 9 -14 -8 -64 -86 -257 -53 -132 -113 -275 -132 -318 -30 -67 -34 -85 -28
-124 6 -38 3 -49 -16 -69 -49 -52 -49 -50 -47 313 l3 338 165 97 c156 92 190
108 190 91z m147 -104 c30 -17 52 -33 50 -36 -3 -2 -31 12 -63 32 -73 43 -62
47 13 4z m29 -369 c23 0 24 -4 24 -59 0 -49 3 -61 23 -74 17 -12 18 -16 6 -16
-9 -1 -27 7 -40 18 -36 28 -106 61 -129 61 -11 0 -20 2 -20 4 0 3 20 62 35
103 3 9 15 5 41 -12 20 -14 47 -25 60 -25z m312 -147 l42 -6 0 -83 c0 -97 2
-95 -91 -60 l-64 24 2 47 c3 52 30 98 53 89 8 -4 34 -9 58 -11z"/>
<path d="M960 2282 l1 -57 35 39 c36 42 36 45 -8 64 l-28 12 0 -58z"/>
</g>
</svg>
