<?xml version="1.0" encoding="utf-8"?>
<svg data-name="Layer 1" width="740.10323" height="574.31553" viewBox="0 0 740.10323 574.31553" xmlns="http://www.w3.org/2000/svg">
  <g transform="matrix(0.73454, 0, 0, 0.699002, -435.273529, 89.827637)" style="">
    <path d="M 1472.549 14.749 L 810.273 14.749 C 800.206 14.749 792.045 23.204 792.045 33.634 L 792.045 415.936 C 792.045 426.367 800.206 434.822 810.273 434.822 L 1472.549 434.822 C 1482.616 434.822 1490.777 426.367 1490.777 415.936 L 1490.777 33.634 C 1490.777 23.204 1482.616 14.749 1472.549 14.749 Z" style="" fill="#3f3d56"/>
    <rect x="806.671" y="35.936" width="666.634" height="372.423" style="stroke: rgb(0, 0, 0); fill: rgb(255, 255, 255);"/>
    <ellipse style="fill: rgb(0, 117, 213); fill-opacity: 0.5; stroke: rgb(255, 255, 255);" cx="1378.847" cy="139.033" rx="22.912" ry="24.207"/>
  </g>
  <path d="M 630.551 112.919 L 174.016 112.919 C 165.187 112.927 158.031 118.975 158.022 126.441 L 158.022 361.627 C 158.031 369.093 165.187 375.143 174.016 375.151 L 630.551 375.151 C 639.38 375.143 646.535 369.093 646.546 361.627 L 646.546 126.441 C 646.535 118.975 639.38 112.927 630.551 112.919 Z M 645.137 361.627 C 645.137 368.436 638.606 373.958 630.551 373.958 L 174.016 373.958 C 165.962 373.958 159.432 368.436 159.432 361.627 L 159.432 206.892 C 159.432 155.648 208.565 114.11 269.175 114.11 L 630.551 114.11 C 638.606 114.11 645.137 119.632 645.137 126.441 L 645.137 361.627 Z" style="fill: rgb(0, 117, 213);"/>
  <path d="M 596.371 288.534 L 403.46 288.534 C 399.29 288.53 395.912 285.151 395.906 280.981 L 395.906 218.331 C 395.912 214.161 399.29 210.782 403.46 210.777 L 596.371 210.777 C 600.539 210.782 603.918 214.161 603.923 218.331 L 603.923 280.981 C 603.918 285.151 600.539 288.53 596.371 288.534 Z" fill="#e6e6e6" style=""/>
  <ellipse cx="295.577" cy="105.882" rx="5.62" ry="5.745" fill="#3f3d56" style=""/>
  <ellipse cx="276.162" cy="105.882" rx="5.62" ry="5.745" fill="#3f3d56" style=""/>
  <ellipse cx="256.747" cy="105.882" rx="5.62" ry="5.745" fill="#3f3d56" style=""/>
  <path d="M 479.214 164.566 L 400.61 164.566 C 396.846 164.566 394.492 160.49 396.375 157.229 C 397.248 155.716 398.863 154.784 400.61 154.784 L 479.214 154.784 C 482.979 154.784 485.332 158.86 483.45 162.119 C 482.576 163.633 480.961 164.566 479.214 164.566 Z" fill="#e6e6e6" style=""/>
  <path d="M 540.555 181.117 L 400.61 181.117 C 396.846 181.117 394.492 177.042 396.375 173.783 C 397.248 172.269 398.863 171.336 400.61 171.336 L 540.555 171.336 C 544.321 171.336 546.674 175.412 544.791 178.672 C 543.917 180.186 542.304 181.117 540.555 181.117 Z" fill="#e6e6e6" style=""/>
  <path d="M 668.38 399.516 L 621.176 399.516 L 621.176 397.275 C 621.176 397.028 620.874 396.829 620.503 396.829 L 604.318 396.829 C 603.946 396.829 603.644 397.028 603.644 397.275 L 603.644 399.516 L 593.528 399.516 L 593.528 397.275 C 593.528 397.028 593.227 396.829 592.854 396.829 L 576.671 396.829 C 576.3 396.829 575.995 397.028 575.995 397.275 L 575.995 399.516 L 565.882 399.516 L 565.882 397.275 C 565.882 397.028 565.579 396.829 565.207 396.829 L 549.024 396.829 C 548.651 396.829 548.349 397.028 548.349 397.275 L 548.349 399.516 L 538.235 399.516 L 538.235 397.275 C 538.235 397.028 537.933 396.829 537.56 396.829 L 521.376 396.829 C 521.004 396.829 520.702 397.028 520.702 397.275 L 520.702 399.516 L 510.588 399.516 L 510.588 397.275 C 510.588 397.028 510.284 396.829 509.912 396.829 L 493.729 396.829 C 493.355 396.829 493.055 397.028 493.055 397.275 L 493.055 399.516 L 482.939 399.516 L 482.939 397.275 C 482.939 397.028 482.636 396.829 482.266 396.829 L 466.08 396.829 C 465.708 396.829 465.408 397.028 465.408 397.275 L 465.408 399.516 L 455.292 399.516 L 455.292 397.275 C 455.292 397.028 454.99 396.829 454.618 396.829 L 327.845 396.829 C 327.473 396.829 327.171 397.028 327.171 397.275 L 327.171 399.516 L 317.057 399.516 L 317.057 397.275 C 317.057 397.028 316.754 396.829 316.381 396.829 L 300.197 396.829 C 299.826 396.829 299.523 397.028 299.523 397.275 L 299.523 399.516 L 289.408 399.516 L 289.408 397.275 C 289.408 397.028 289.107 396.829 288.734 396.829 L 272.55 396.829 C 272.177 396.829 271.875 397.028 271.875 397.275 L 271.875 399.516 L 261.761 399.516 L 261.761 397.275 C 261.761 397.028 261.459 396.829 261.087 396.829 L 244.904 396.829 C 244.53 396.829 244.228 397.028 244.228 397.275 L 244.228 399.516 L 234.114 399.516 L 234.114 397.275 C 234.114 397.028 233.812 396.829 233.44 396.829 L 217.255 396.829 C 216.884 396.829 216.582 397.028 216.582 397.275 L 216.582 399.516 L 206.467 399.516 L 206.467 397.275 C 206.467 397.028 206.162 396.829 205.791 396.829 L 189.608 396.829 C 189.235 396.829 188.935 397.028 188.935 397.275 L 188.935 399.516 L 178.818 399.516 L 178.818 397.275 C 178.818 397.028 178.518 396.829 178.145 396.829 L 161.96 396.829 C 161.589 396.829 161.288 397.028 161.288 397.275 L 161.288 399.516 L 130.267 399.516 C 121.329 399.516 114.083 404.292 114.083 410.184 L 114.083 415.01 C 114.083 420.9 121.329 425.676 130.267 425.676 L 668.38 425.676 C 677.319 425.676 684.563 420.9 684.563 415.01 L 684.563 410.184 C 684.564 404.292 677.319 399.516 668.38 399.516 Z" fill="#3f3d56" style=""/>
  <polygon points="113.62 428.949 120.181 428.949 123.303 403.64 113.619 403.641 113.62 428.949" style="fill: rgb(160, 88, 57);"/>
  <path d="M 113.619 435.794 L 133.796 435.793 L 133.796 435.538 C 133.795 431.201 130.28 427.686 125.942 427.684 L 122.256 424.889 L 115.381 427.686 L 113.619 427.686 L 113.619 435.794 Z" style="fill: rgb(28, 27, 38);"/>
  <polygon points="75.922 428.949 82.483 428.949 85.605 403.64 75.92 403.641 75.922 428.949" style="fill: rgb(160, 88, 57);"/>
  <path d="M 75.691 435.794 L 95.867 435.793 L 95.867 435.538 C 95.867 431.201 92.352 427.686 88.014 427.684 L 84.328 424.889 L 77.451 427.686 L 75.691 427.686 L 75.691 435.794 Z" style="fill: rgb(28, 27, 38);"/>
  <path d="M 158.046 260.915 L 135.692 239.95 L 141.746 229.806 L 163.794 255.019 C 168.701 254.526 172.303 259.53 170.276 264.026 C 168.25 268.523 162.117 269.139 159.236 265.137 C 158.355 263.914 157.934 262.418 158.046 260.915 Z" style="fill: rgb(160, 88, 57);"/>
  <path d="M 103.308 194.127 L 75.994 194.127 L 71.4 205.806 L 72.509 298.143 C 72.509 298.143 126.627 298.143 130.327 294.443 L 118.763 254.202 L 114.6 202.86 L 103.308 194.127 Z" style="fill: rgb(89, 5, 145);"/>
  <polygon points="118.3 202.397 137.727 223.211 144.666 227.836 146.516 233.85 138.652 247.263 129.864 244.026 127.09 233.85 110.782 220.519 109.049 199.159 118.3 202.397" fill="#2f2e41" style=""/>
  <polygon points="100.762 194.788 103.959 208.434 108.357 257.208 114.369 294.212 131.716 294.212 121.307 253.971 117.145 202.166 103.269 193.841 100.762 194.788" style="fill: rgb(28, 27, 38);"/>
  <polygon points="78.483 194.788 83.379 210.492 91.242 262.296 79.215 299.3 67.54 299.482 64.501 288.002 71.353 258.596 62.102 202.166 75.978 193.841 78.483 194.788" style="fill: rgb(28, 27, 38);"/>
  <circle cx="88.591" cy="172.946" r="16.556" style="fill: rgb(160, 88, 57);"/>
  <path d="M 79.04 181.141 C 79.04 181.141 78.245 182.348 79.779 187.465 L 72.741 181.814 L 71.971 175.608 C 71.971 175.608 68.388 162.813 80.671 156.672 C 80.671 156.672 91.418 151.042 101.654 159.231 C 101.654 159.231 105.748 159.743 105.236 160.254 C 104.725 160.766 102.166 162.302 104.725 161.79 C 107.284 161.278 100.762 162.365 100.762 163.899 C 100.762 165.435 104.213 165.372 104.213 165.372 C 104.213 165.372 106.004 170.235 93.721 163.58 C 92.408 166.866 89.877 169.516 86.656 170.98 L 87.05 171.365 L 83.998 177.91 C 83.998 177.91 80.831 173.721 79.04 181.141 Z" fill="#2f2e41" style=""/>
  <path d="M 69.503 291.436 C 69.503 291.436 66.727 316.414 72.741 340.003 L 70.476 351.407 L 75.515 416.786 L 87.749 416.786 L 96.33 309.013 L 112.348 416.786 L 125.197 416.786 L 123.62 357.58 L 129.182 300.687 L 126.858 287.736 L 69.503 291.436 Z" style="fill: rgb(28, 27, 38);"/>
  <path d="M 80.338 310.335 L 135.963 184.912 C 137.169 182.203 140.34 180.98 143.053 182.18 L 183.785 200.244 C 186.495 201.45 187.718 204.621 186.519 207.334 L 130.894 332.755 C 129.688 335.465 126.517 336.687 123.804 335.489 L 83.072 317.423 C 80.362 316.218 79.139 313.047 80.338 310.335 Z M 185.654 206.949 C 186.642 204.716 185.635 202.101 183.402 201.109 L 142.67 183.044 C 140.435 182.055 137.821 183.063 136.828 185.295 L 81.203 310.718 C 80.215 312.953 81.222 315.566 83.455 316.559 L 124.187 334.624 C 126.422 335.612 129.036 334.605 130.029 332.372 L 185.654 206.949 Z" style="fill: rgb(28, 27, 38);"/>
  <path d="M 80.338 310.335 L 135.963 184.912 C 137.169 182.203 140.34 180.98 143.053 182.18 L 183.785 200.244 C 186.495 201.45 187.718 204.621 186.519 207.334 L 130.894 332.755 C 129.688 335.465 126.517 336.687 123.804 335.489 L 83.072 317.423 C 80.362 316.218 79.139 313.047 80.338 310.335 Z" fill="#fff" style=""/>
  <circle cx="141.142" cy="238.237" r="20.815" fill="#ccc" style=""/>
  <circle cx="131.016" cy="261.069" r="20.815" fill="#3f3d56" style=""/>
  <path d="M 112.452 302.928 C 97.804 296.432 95.682 276.516 108.631 267.08 C 114.641 262.7 122.531 261.86 129.329 264.874 C 139.837 269.534 151.36 293.438 139.917 292.34 C 126.813 291.082 122.959 307.589 112.452 302.928 Z" style="fill: rgb(0, 117, 213);"/>
  <path d="M 84.455 290.58 L 68.191 250.056 L 81.197 252.657 L 92.051 287.408 C 96.76 288.876 98.114 294.89 94.488 298.233 C 90.863 301.577 84.978 299.743 83.895 294.931 C 83.564 293.46 83.762 291.919 84.455 290.58 Z" style="fill: rgb(160, 88, 57);"/>
  <path d="M 58.12 212.052 C 57.173 222.498 59.134 231.67 62.65 240.161 L 63.103 247.713 L 66.718 252.862 L 82.135 254.874 L 84.967 245.946 L 78.629 237.515 L 78.097 216.458 L 62.286 201.994 L 58.12 212.052 Z" style="fill: rgb(28, 27, 38);"/>
  <path d="M 61.084 335.351 C 59.95 335.403 59.184 334.207 59.707 333.198 C 59.786 333.046 59.889 332.909 60.015 332.793 L 60.116 332.392 C 60.103 332.359 60.09 332.327 60.076 332.295 C 58.886 329.485 55.102 329.017 53.264 331.451 C 53.061 331.72 52.894 332.011 52.766 332.322 C 51.569 335.201 50.048 338.087 49.673 341.131 C 49.507 342.477 49.577 343.841 49.879 345.163 C 47.069 339.037 45.612 332.379 45.603 325.641 C 45.601 323.949 45.696 322.259 45.883 320.579 C 46.039 319.2 46.255 317.832 46.53 316.475 C 48.036 309.106 51.268 302.199 55.961 296.321 C 58.233 295.081 60.069 293.176 61.223 290.86 C 61.642 290.028 61.938 289.14 62.102 288.223 C 61.845 288.256 61.135 284.353 61.33 284.115 C 60.971 283.573 60.333 283.303 59.943 282.774 C 58.003 280.144 55.331 280.603 53.936 284.178 C 50.956 285.681 50.927 288.176 52.755 290.575 C 53.919 292.101 54.079 294.166 55.099 295.8 C 54.994 295.934 54.885 296.065 54.78 296.199 C 52.86 298.668 51.188 301.318 49.784 304.112 C 50.127 300.981 49.719 297.815 48.597 294.872 C 47.46 292.129 45.33 289.819 43.453 287.448 C 41.521 284.968 37.629 285.51 36.447 288.423 C 36.313 288.754 36.223 289.099 36.18 289.453 C 36.176 289.487 36.172 289.523 36.168 289.558 C 36.447 289.715 36.72 289.882 36.986 290.059 C 38.268 290.914 38.142 292.837 36.759 293.519 C 36.577 293.608 36.382 293.671 36.18 293.702 L 36.139 293.708 C 36.237 294.713 36.413 295.708 36.664 296.687 C 34.255 305.996 39.454 309.386 46.875 309.54 C 47.039 309.624 47.199 309.708 47.363 309.788 C 45.953 313.781 45.069 317.941 44.733 322.162 C 44.543 324.653 44.553 327.154 44.766 329.642 L 44.754 329.555 C 44.216 326.787 42.739 324.29 40.574 322.485 C 37.359 319.843 32.814 318.87 29.345 316.746 C 27.856 315.791 25.891 316.805 25.807 318.572 C 25.8 318.708 25.807 318.846 25.825 318.983 L 25.84 319.074 C 26.357 319.286 26.86 319.528 27.347 319.801 C 27.626 319.958 27.898 320.125 28.165 320.302 C 29.447 321.159 29.321 323.08 27.938 323.762 C 27.756 323.853 27.561 323.914 27.359 323.945 L 27.318 323.951 C 27.288 323.955 27.263 323.959 27.234 323.963 C 28.118 326.073 29.358 328.016 30.9 329.705 C 32.406 337.834 38.871 338.605 45.788 336.238 L 45.792 336.238 C 46.55 339.535 47.649 342.745 49.072 345.814 L 60.792 345.814 C 60.832 345.684 60.872 345.55 60.908 345.419 C 59.824 345.487 58.735 345.423 57.666 345.226 C 58.536 344.16 59.405 343.084 60.274 342.018 C 60.293 341.997 60.312 341.976 60.329 341.955 C 60.771 341.408 61.215 340.866 61.656 340.321 L 61.657 340.319 C 61.68 338.646 61.488 336.976 61.086 335.351 L 61.084 335.351 Z" style="fill: rgb(0, 117, 213); fill-opacity: 0.53;"/>
  <path d="M 186.979 436.568 C 186.98 436.996 186.634 437.343 186.205 437.342 L 21.481 437.342 C 20.886 437.342 20.513 436.697 20.811 436.181 C 20.95 435.941 21.204 435.794 21.481 435.794 L 186.205 435.794 C 186.634 435.793 186.98 436.139 186.979 436.568 Z" fill="#ccc" style=""/>
  <ellipse style="stroke: rgb(0, 0, 0); fill: rgb(255, 252, 252);" cx="402.542" cy="106.934" rx="5.985" ry="5.985"/>
  <rect x="313.979" y="114.018" width="85.298" height="147.37" style="fill: rgb(216, 216, 216); stroke: rgb(0, 0, 0); stroke-width: 0px;" transform="matrix(-0.999959, 0.009084, -0.009084, -0.999959, 632.606689, 411.90744)"/>
  <rect x="355.751" y="379.764" width="90.466" height="10.256" style="stroke: rgb(0, 0, 0); fill: rgb(255, 255, 255); stroke-width: 0px;"/>
</svg>