<?xml version="1.0" encoding="utf-8"?>
<svg data-name="Layer 1" width="740.10323" height="574.31553" viewBox="0 0 740.10323 574.31553" xmlns="http://www.w3.org/2000/svg">
  <g transform="matrix(1.129473, 0, 0, 1.074826, -911.113647, 30.185783)" style="">
    <path d="M 1472.549 14.749 L 810.273 14.749 C 800.206 14.749 792.045 23.204 792.045 33.634 L 792.045 415.936 C 792.045 426.367 800.206 434.822 810.273 434.822 L 1472.549 434.822 C 1482.616 434.822 1490.777 426.367 1490.777 415.936 L 1490.777 33.634 C 1490.777 23.204 1482.616 14.749 1472.549 14.749 Z" style="" fill="#3f3d56"/>
    <rect x="806.671" y="35.936" width="666.634" height="372.423" style="stroke: rgb(0, 0, 0); fill: rgb(255, 255, 255);"/>
    <ellipse style="fill: rgb(0, 117, 213); fill-opacity: 0.5; stroke: rgb(255, 255, 255);" cx="1378.847" cy="139.033" rx="22.912" ry="24.207"/>
  </g>
  <path d="M 716.224 79.167 L 34.66 79.167 C 21.479 79.18 10.796 87.844 10.781 98.535 L 10.781 435.381 C 10.796 446.072 21.479 454.736 34.66 454.749 L 716.224 454.749 C 729.406 454.736 740.088 446.072 740.103 435.381 L 740.103 98.535 C 740.088 87.844 729.406 79.18 716.224 79.167 Z M 737.999 435.381 C 737.999 445.135 728.25 453.042 716.224 453.042 L 34.66 453.042 C 22.635 453.042 12.886 445.135 12.886 435.381 L 12.886 213.759 C 12.886 140.368 86.238 80.874 176.721 80.874 L 716.224 80.874 C 728.25 80.874 737.999 88.781 737.999 98.535 L 737.999 435.381 Z" fill="#3f3d56" style=""/>
  <path d="M678.92225,335.731h-296.63A11.6277,11.6277,0,0,1,370.678,324.11672V227.78153a11.6277,11.6277,0,0,1,11.61427-11.61428h296.63a11.62771,11.62771,0,0,1,11.61427,11.61428v96.33519A11.62771,11.62771,0,0,1,678.92225,335.731Z" fill="#e6e6e6"/>
  <ellipse cx="216.40538" cy="54.87291" rx="8.64192" ry="8.83451" fill="#3f3d56"/>
  <ellipse cx="186.55149" cy="54.87291" rx="8.64192" ry="8.83451" fill="#3f3d56"/>
  <ellipse cx="156.6976" cy="54.87291" rx="8.64192" ry="8.83451" fill="#3f3d56"/>
  <path d="M498.77559,145.10878H377.91041a7.52,7.52,0,0,1,0-15.04008H498.77559a7.52,7.52,0,0,1,0,15.04008Z" fill="#e6e6e6"/>
  <path d="M593.09919,170.56122H377.91041a7.52,7.52,0,0,1,0-15.04008H593.09919a7.52,7.52,0,1,1,0,15.04008Z" fill="#e6e6e6"/>
  <path d="M 792.515 504.195 L 720.017 504.195 L 720.017 500.752 C 720.017 500.375 719.554 500.069 718.983 500.069 L 694.125 500.069 C 693.555 500.069 693.091 500.375 693.091 500.752 L 693.091 504.195 L 677.555 504.195 L 677.555 500.752 C 677.555 500.375 677.092 500.069 676.518 500.069 L 651.664 500.069 C 651.092 500.069 650.628 500.375 650.628 500.752 L 650.628 504.195 L 635.094 504.195 L 635.094 500.752 C 635.094 500.375 634.629 500.069 634.057 500.069 L 609.202 500.069 C 608.629 500.069 608.165 500.375 608.165 500.752 L 608.165 504.195 L 592.632 504.195 L 592.632 500.752 C 592.632 500.375 592.167 500.069 591.596 500.069 L 566.739 500.069 C 566.167 500.069 565.703 500.375 565.703 500.752 L 565.703 504.195 L 550.169 504.195 L 550.169 500.752 C 550.169 500.375 549.703 500.069 549.132 500.069 L 524.277 500.069 C 523.704 500.069 523.241 500.375 523.242 500.752 L 523.242 504.195 L 507.706 504.195 L 507.706 500.752 C 507.706 500.375 507.241 500.069 506.671 500.069 L 481.813 500.069 C 481.241 500.069 480.779 500.375 480.779 500.752 L 480.779 504.195 L 465.244 504.195 L 465.244 500.752 C 465.244 500.375 464.78 500.069 464.207 500.069 L 269.503 500.069 C 268.931 500.069 268.466 500.375 268.466 500.752 L 268.466 504.195 L 252.933 504.195 L 252.933 500.752 C 252.933 500.375 252.469 500.069 251.897 500.069 L 227.04 500.069 C 226.469 500.069 226.004 500.375 226.004 500.752 L 226.004 504.195 L 210.469 504.195 L 210.469 500.752 C 210.469 500.375 210.005 500.069 209.434 500.069 L 184.578 500.069 C 184.006 500.069 183.541 500.375 183.541 500.752 L 183.541 504.195 L 168.007 504.195 L 168.007 500.752 C 168.007 500.375 167.543 500.069 166.971 500.069 L 142.116 500.069 C 141.543 500.069 141.079 500.375 141.08 500.752 L 141.08 504.195 L 125.546 504.195 L 125.546 500.752 C 125.546 500.375 125.082 500.069 124.509 500.069 L 99.652 500.069 C 99.081 500.069 98.619 500.375 98.619 500.752 L 98.619 504.195 L 83.082 504.195 L 83.082 500.752 C 83.082 500.375 82.617 500.069 82.045 500.069 L 57.191 500.069 C 56.618 500.069 56.156 500.375 56.156 500.752 L 56.156 504.195 L 40.619 504.195 L 40.619 500.752 C 40.619 500.375 40.157 500.069 39.586 500.069 L 14.728 500.069 C 14.157 500.069 13.694 500.375 13.694 500.752 L 13.694 504.195 L -33.95 504.195 C -47.675 504.195 -58.804 511.53 -58.804 520.579 L -58.804 527.989 C -58.804 537.038 -47.675 544.373 -33.95 544.373 L 792.515 544.373 C 806.243 544.373 817.371 537.038 817.371 527.989 L 817.371 520.579 C 817.372 511.53 806.243 504.195 792.515 504.195 Z" fill="#3f3d56" style=""/>
  <polygon points="161.959 563.077 172.048 563.076 176.847 524.161 161.957 524.162 161.959 563.077" style="fill: rgb(160, 88, 57);"/>
  <path d="M161.95749,573.60189l31.02493-.00119v-.39231a12.07642,12.07642,0,0,0-12.07576-12.07558h-.00075l-5.66709-4.29933-10.57354,4.3-2.70828.00006Z" style="fill: rgb(28, 27, 38);"/>
  <polygon points="103.992 563.077 114.081 563.076 118.88 524.161 103.99 524.162 103.992 563.077" style="fill: rgb(160, 88, 57);"/>
  <path d="M103.63647,573.60189l31.02493-.00119v-.39231a12.07642,12.07642,0,0,0-12.07577-12.07558h-.00074l-5.66709-4.29933-10.57354,4.3-2.70828.00006Z" style="fill: rgb(28, 27, 38);"/>
  <path d="M230.27163,304.69721l-34.37412-32.23668,9.3102-15.59609L239.10887,295.633a9.85119,9.85119,0,1,1-8.83724,9.06424Z" style="fill: rgb(160, 88, 57);"/>
  <path d="M146.10323,202h-42l-7.06341,17.95826,1.70435,141.98411s83.21414,0,88.904-5.68986l-17.7808-61.87718-6.40109-78.94675Z" style="fill: rgb(89, 5, 145);"/>
  <polygon points="169.156 214.717 199.028 246.723 209.696 253.835 212.541 263.081 200.45 283.707 186.937 278.728 182.67 263.081 157.594 242.581 154.931 209.739 169.156 214.717" fill="#2f2e41"/>
  <polygon points="142.188 203.016 147.103 224 153.865 298.998 163.111 355.897 189.785 355.897 173.779 294.02 167.378 214.362 146.041 201.56 142.188 203.016" style="fill: rgb(28, 27, 38);"/>
  <polygon points="107.931 203.016 115.458 227.164 127.549 306.822 109.057 363.72 91.103 364 86.431 346.349 96.966 301.132 82.741 214.362 104.078 201.56 107.931 203.016" style="fill: rgb(28, 27, 38);"/>
  <circle cx="123.47208" cy="169.43092" r="25.45799" style="fill: rgb(160, 88, 57);"/>
  <path d="M 108.785 182.033 C 108.785 182.033 107.563 183.888 109.923 191.757 L 99.1 183.068 L 97.916 173.525 C 97.916 173.525 92.407 153.851 111.294 144.408 C 111.294 144.408 127.82 135.751 143.559 148.342 C 143.559 148.342 149.854 149.129 149.067 149.916 C 148.28 150.703 144.346 153.064 148.28 152.277 C 152.215 151.49 142.188 153.16 142.188 155.521 C 142.188 157.882 147.493 157.786 147.493 157.786 C 147.493 157.786 150.248 165.262 131.361 155.031 C 129.341 160.082 125.449 164.157 120.497 166.408 L 121.103 167 L 116.409 177.066 C 116.409 177.066 111.54 170.623 108.785 182.033 Z" fill="#2f2e41"/>
  <path d="M94.12116,351.62951s-4.26739,38.40652,4.97863,74.67935l-3.48243,17.53439,7.74982,100.53012h18.81124l13.1942-165.71705,24.6299,165.71705h19.75769l-2.42491-91.03769,8.55159-87.48153-3.573-19.9145Z" style="fill: rgb(28, 27, 38);"/>
  <path d="M110.78336,380.68836l85.53226-192.85677a8.27,8.27,0,0,1,10.90006-4.20219l62.63323,27.77793a8.27,8.27,0,0,1,4.20219,10.90006L188.51884,415.16417a8.27,8.27,0,0,1-10.90007,4.20219l-62.63322-27.77793A8.27,8.27,0,0,1,110.78336,380.68836Zm161.93893-158.9703a6.81447,6.81447,0,0,0-3.46271-8.98192l-62.63323-27.77793a6.81447,6.81447,0,0,0-8.98192,3.46271L112.11217,381.27769a6.81447,6.81447,0,0,0,3.46271,8.98193l62.63322,27.77793a6.81448,6.81448,0,0,0,8.98193-3.46271Z" style="fill: rgb(28, 27, 38);"/>
  <path d="M110.78336,380.68836l85.53226-192.85677a8.27,8.27,0,0,1,10.90006-4.20219l62.63323,27.77793a8.27,8.27,0,0,1,4.20219,10.90006L188.51884,415.16417a8.27,8.27,0,0,1-10.90007,4.20219l-62.63322-27.77793A8.27,8.27,0,0,1,110.78336,380.68836Z" fill="#fff"/>
  <circle cx="204.27831" cy="269.82564" r="32.00544" fill="#ccc"/>
  <circle cx="188.70759" cy="304.93424" r="32.00544" fill="#3f3d56"/>
  <path d="M160.16127,369.3a32.00544,32.00544,0,1,1,25.9512-58.51434c16.15829,7.16622,33.87683,43.92154,16.28157,42.23276C182.24462,351.08452,176.31956,376.46624,160.16127,369.3Z" style="fill: rgb(0, 117, 213);"/>
  <path d="M117.11263,350.313,92.10323,288l20,4,16.691,53.43474a9.8512,9.8512,0,1,1-11.68159,4.87829Z" style="fill: rgb(160, 88, 57);"/>
  <path d="M76.61773,229.56329c-1.45581,16.06283,1.55945,30.16651,6.96727,43.22182l.69454,11.61228,5.55966,7.9166,23.70719,3.09527,4.35283-13.72777-9.74411-12.96514-.81922-32.37791-24.3118-22.24116Z" style="fill: rgb(28, 27, 38);"/>
  <path d="M 81.177 419.155 C 79.432 419.235 78.255 417.396 79.058 415.845 C 79.179 415.611 79.339 415.4 79.533 415.222 L 79.688 414.604 C 79.668 414.554 79.647 414.505 79.626 414.455 C 77.797 410.135 71.978 409.415 69.151 413.159 C 68.84 413.571 68.583 414.02 68.385 414.497 C 66.546 418.925 64.206 423.361 63.629 428.043 C 63.375 430.112 63.482 432.21 63.946 434.243 C 59.627 424.823 57.385 414.585 57.371 404.223 C 57.37 401.622 57.514 399.024 57.803 396.44 C 58.042 394.321 58.374 392.218 58.798 390.129 C 61.113 378.798 66.082 368.177 73.298 359.14 C 76.791 357.234 79.615 354.304 81.391 350.743 C 82.034 349.463 82.489 348.097 82.741 346.687 C 82.347 346.739 81.255 340.738 81.553 340.37 C 81.004 339.537 80.021 339.123 79.421 338.31 C 76.439 334.266 72.33 334.972 70.185 340.467 C 65.603 342.78 65.558 346.615 68.37 350.304 C 70.159 352.651 70.405 355.826 71.974 358.339 C 71.813 358.545 71.645 358.746 71.483 358.952 C 68.531 362.748 65.959 366.824 63.802 371.121 C 64.327 366.307 63.701 361.437 61.976 356.911 C 60.228 352.694 56.951 349.142 54.065 345.496 C 51.094 341.684 45.11 342.517 43.293 346.996 C 43.088 347.504 42.949 348.036 42.881 348.58 C 42.875 348.633 42.87 348.687 42.864 348.741 C 43.293 348.983 43.712 349.239 44.123 349.511 C 46.093 350.827 45.899 353.783 43.774 354.831 C 43.493 354.97 43.192 355.065 42.881 355.113 L 42.819 355.122 C 42.971 356.667 43.241 358.198 43.626 359.702 C 39.924 374.017 47.916 379.231 59.328 379.466 C 59.579 379.595 59.825 379.724 60.077 379.847 C 57.91 385.987 56.551 392.384 56.034 398.875 C 55.741 402.704 55.758 406.551 56.085 410.378 L 56.066 410.242 C 55.239 405.987 52.969 402.147 49.639 399.372 C 44.694 395.309 37.706 393.813 32.371 390.548 C 30.082 389.078 27.061 390.637 26.933 393.354 C 26.923 393.565 26.932 393.776 26.96 393.985 L 26.982 394.127 C 27.777 394.451 28.551 394.824 29.3 395.245 C 29.729 395.487 30.148 395.743 30.559 396.015 C 32.529 397.331 32.336 400.287 30.21 401.335 C 29.929 401.474 29.628 401.569 29.318 401.616 L 29.255 401.626 C 29.21 401.632 29.171 401.639 29.126 401.645 C 30.485 404.89 32.392 407.877 34.764 410.475 C 37.079 422.972 47.02 424.158 57.655 420.518 L 57.661 420.518 C 58.828 425.588 60.518 430.524 62.706 435.244 L 80.726 435.244 C 80.79 435.044 80.849 434.838 80.907 434.637 C 79.239 434.742 77.564 434.642 75.92 434.34 C 77.257 432.7 78.594 431.046 79.931 429.406 C 79.961 429.375 79.989 429.343 80.015 429.309 C 80.694 428.469 81.378 427.636 82.056 426.796 L 82.057 426.795 C 82.093 424.222 81.798 421.654 81.178 419.155 L 81.177 419.155 Z" style="fill: rgb(0, 117, 213); fill-opacity: 0.53;"/>
  <path d="M255.81023,573.12552a1.18647,1.18647,0,0,1-1.19007,1.19H1.33018a1.19,1.19,0,0,1,0-2.38h253.29A1.18651,1.18651,0,0,1,255.81023,573.12552Z" fill="#ccc"/>
  <ellipse style="stroke: rgb(0, 0, 0); fill: rgb(255, 252, 252);" cx="380.881" cy="56.491" rx="9.203" ry="9.203"/>
</svg>