      <svg style="opacity:0.1" viewBox="0 0 200 200" xmlns="http://www.w3.org/2000/svg">
        <path fill="#4406B1"
          d="M49.3,-42.7C61.9,-23.5,68.7,-3.1,65.4,16.4C62.1,35.9,48.7,54.6,32,60.4C15.2,66.2,-4.9,59.1,-26.8,50.5C-48.8,42,-72.5,32,-76.2,17C-79.9,2.1,-63.6,-17.8,-47.6,-37.9C-31.6,-57.9,-15.8,-78,1.3,-79C18.3,-80.1,36.7,-62,49.3,-42.7Z"
          transform="translate(100 100)" />
                 <!-- <path fill="#4406B1"
          d="M49.3,-42.7C61.9,-23.5,68.7,-3.1,65.4,16.4C62.1,35.9,48.7,54.6,32,60.4C15.2,66.2,-4.9,59.1,-26.8,50.5C-48.8,42,-72.5,32,-76.2,17C-79.9,2.1,-63.6,-17.8,-47.6,-37.9C-31.6,-57.9,-15.8,-78,1.3,-79C18.3,-80.1,36.7,-62,49.3,-42.7Z"
          transform="scale(0.2),translate(100 800)" />
               <path fill="#4406B1"
          d="M49.3,-42.7C61.9,-23.5,68.7,-3.1,65.4,16.4C62.1,35.9,48.7,54.6,32,60.4C15.2,66.2,-4.9,59.1,-26.8,50.5C-48.8,42,-72.5,32,-76.2,17C-79.9,2.1,-63.6,-17.8,-47.6,-37.9C-31.6,-57.9,-15.8,-78,1.3,-79C18.3,-80.1,36.7,-62,49.3,-42.7Z"
          transform="scale(0.2),translate(800 800)" /> -->
      </svg>